<svg width="100" height="100" viewBox="0 0 100 100" fill="none" xmlns="http://www.w3.org/2000/svg">
<circle cx="50" cy="50" r="50" fill="black"/>
<path d="M14.54 73V72.3L15.8 71.88C16.7333 71.5533 17.3633 71.11 17.69 70.55C18.0167 69.99 18.18 69.2433 18.18 68.31C18.2267 65.51 18.25 62.6867 18.25 59.84C18.25 56.9933 18.25 54.1467 18.25 51.3V48.5C18.25 45.7 18.25 42.9 18.25 40.1C18.25 37.2533 18.2267 34.43 18.18 31.63C18.18 30.6967 18.04 29.95 17.76 29.39C17.5267 28.83 16.9667 28.3867 16.08 28.06L14.54 27.5V26.8H48.42L48.91 38.42H48.21L44.22 31.07C43.7533 30.1833 43.2167 29.4833 42.61 28.97C42.0033 28.4567 41.1633 28.2 40.09 28.2H28.82C28.7733 31.5133 28.75 34.8967 28.75 38.35C28.75 41.8033 28.75 45.2333 28.75 48.64H36.03C37.1033 48.64 37.8967 48.4067 38.41 47.94C38.9233 47.4733 39.4133 46.7967 39.88 45.91L41.35 43.25H42.05V55.5H41.35L39.81 52.84C39.3433 52 38.8533 51.3233 38.34 50.81C37.8733 50.2967 37.1033 50.04 36.03 50.04H28.75C28.75 53.3067 28.75 56.4333 28.75 59.42C28.75 62.36 28.7733 65.2533 28.82 68.1C28.82 69.92 29.7067 71.11 31.48 71.67L33.58 72.3V73H14.54ZM51.7275 73V72.3L53.1275 71.81C54.0608 71.53 54.6675 71.11 54.9475 70.55C55.2742 69.99 55.4375 69.2433 55.4375 68.31V31.63C55.4375 30.6967 55.2742 29.95 54.9475 29.39C54.6208 28.83 53.9908 28.3867 53.0575 28.06L51.7275 27.5V26.8H68.7375C75.6908 26.8 80.7075 28.0833 83.7875 30.65C86.9142 33.17 88.4775 36.5067 88.4775 40.66C88.4775 43.32 87.8242 45.77 86.5175 48.01C85.2575 50.2033 83.1575 51.9533 80.2175 53.26C77.2775 54.5667 73.3108 55.22 68.3175 55.22H65.9375V68.1C65.9375 69.92 66.8475 71.11 68.6675 71.67L70.7675 72.3V73H51.7275ZM65.9375 53.82H68.5975C70.8842 53.82 72.7508 53.4467 74.1975 52.7C75.6442 51.9533 76.7175 50.6467 77.4175 48.78C78.1175 46.9133 78.4675 44.3233 78.4675 41.01C78.4675 37.65 78.0708 35.0367 77.2775 33.17C76.5308 31.3033 75.4108 30.02 73.9175 29.32C72.4242 28.5733 70.5575 28.2 68.3175 28.2H65.9375V53.82Z" fill="white"/>
</svg>
